<?xml version="1.0" encoding="utf-8"?>
<!-- Generator: Adobe Illustrator 21.1.0, SVG Export Plug-In . SVG Version: 6.00 Build 0)  -->
<svg version="1.1" id="Layer_1" xmlns="http://www.w3.org/2000/svg" xmlns:xlink="http://www.w3.org/1999/xlink" x="0px" y="0px"
	 viewBox="0 0 398.6 60" style="enable-background:new 0 0 398.6 60;" xml:space="preserve">
<style type="text/css">
	.st0{fill:#FF7656;}
	.st1{fill:#F8CB45;}
	.st2{fill:#F85E17;}
	.st3{fill:#85DDEC;}
	.st4{fill:#81B040;}
	.st5{fill:#E175CD;}
	.st6{fill:#7565BE;}
	.st7{fill:#7A83DD;}
	.st8{fill:#6C3CB2;}
	.st9{fill:#39298B;}
</style>
<g>
	<path class="st0" d="M23.8,16.3h-16c-4.3,0-7.8,3.5-7.8,7.8v11.7c0,4.3,3.5,7.8,7.8,7.8h2.7l4.7,7.2l0.5-7.2h8.1
		c2.6,0,5-1.3,6.4-3.3c-2.4-0.9-4.1-3.2-4.1-5.9V16.7C25.4,16.5,24.6,16.3,23.8,16.3"/>
	<path class="st1" d="M43.8,5.1H32.5c-3.5,0-6.3,2.9-6.3,6.3v5.3c3.2,1,5.5,4,5.5,7.5v11.7c0,1.7-0.5,3.2-1.4,4.5
		c0.7,0.3,1.5,0.4,2.3,0.4h4.1v6.7l4.6-6.7h2.7c0.3,0,0.5,0,0.8,0V6.2c0-0.4,0-0.7,0.1-1C44.4,5.1,44.1,5.1,43.8,5.1"/>
	<path class="st2" d="M26.2,16.7v17.7c0,2.7,1.7,5,4.1,5.9c0.9-1.3,1.4-2.8,1.4-4.5V24.2C31.7,20.7,29.3,17.7,26.2,16.7"/>
	<path class="st3" d="M67.3,0H50.7c-3,0-5.6,2.2-6.1,5.1c3.1,0.4,5.5,3.1,5.5,6.3v23c0,3.2-2.4,5.9-5.6,6.3v0.5
		c0,3.4,2.8,6.2,6.2,6.2h10.1v6.7l4.6-6.7h1.9c2.5,0,4.7-1.6,5.7-3.8h-2c-3.4,0-6.2-2.8-6.2-6.2V16.3c0-3.4,2.8-6.2,6.2-6.2h2.5V6.2
		C73.5,2.8,70.7,0,67.3,0"/>
	<path class="st4" d="M44.7,5.1c-0.1,0.3-0.1,0.7-0.1,1v34.5c3.1-0.4,5.6-3.1,5.6-6.3v-23C50.2,8.2,47.8,5.5,44.7,5.1"/>
	<path class="st5" d="M86.6,10.1H73.5v31.2c0,0.9-0.2,1.7-0.5,2.4h8.4l4.4,7.2v-7.2h0.8c3.2,0,5.9-2.5,6.2-5.7h-2.7
		c-3.1,0-5.7-2.5-5.7-5.7v-8.4c0-3.1,2.5-5.7,5.7-5.7h2.7v-2C92.8,12.9,90,10.1,86.6,10.1"/>
	<path class="st6" d="M73.5,10.1H71c-3.4,0-6.2,2.8-6.2,6.2v21.2c0,3.4,2.8,6.2,6.2,6.2h2c0.3-0.7,0.5-1.6,0.5-2.4V10.1"/>
	<path class="st7" d="M112,18.3H92.8v19.2c0,0.2,0,0.4,0,0.5h12.5l4.9,7.2l0.4-7.2h1.4c3.1,0,5.7-2.5,5.7-5.7v-8.4
		C117.7,20.8,115.1,18.3,112,18.3"/>
	<path class="st8" d="M92.8,18.3h-2.7c-3.1,0-5.7,2.5-5.7,5.7v8.4c0,3.1,2.5,5.7,5.7,5.7h2.7c0-0.2,0-0.4,0-0.5V18.3"/>
</g>
<g>
	<path class="st9" d="M129.1,7.9h12.5v4.8h-2.7v13h2.6V23h5.8v7.4h-18.2v-4.8h1.7v-13h-1.7V7.9z"/>
	<path class="st9" d="M168.3,25.7h1.7l-0.5-2.3h-3.9l-0.5,2.3h1.7v4.8H157v-4.8h1.2L163,7.9h10.6l4.9,17.8h1.2v4.8h-11.4V25.7z
		 M166.3,20.3h2.7l-1.2-5.8h-0.3L166.3,20.3z"/>
	<path class="st9" d="M205.8,7.9H216v4.8h-1.7v17.8h-8.1l-8.5-13.1v8.3h1.7v4.8h-10.1v-4.8h1.7v-13h-1.7V7.9h10.8l7.6,11.7v-6.9
		h-1.7V7.9z"/>
	<path class="st9" d="M236.6,18.9h10.3v4.3h-1.5V29c-0.4,0.2-1,0.4-1.6,0.7c-0.6,0.2-1.3,0.4-2,0.6s-1.6,0.3-2.6,0.4
		c-0.9,0.1-2,0.2-3.2,0.2c-1.7,0-3.3-0.2-4.7-0.6c-1.4-0.4-2.6-1.1-3.6-2c-1-0.9-1.7-2.1-2.2-3.6c-0.5-1.5-0.8-3.3-0.8-5.4
		c0-2.1,0.3-3.9,0.8-5.4c0.5-1.5,1.3-2.7,2.2-3.6s2.1-1.6,3.5-2c1.4-0.4,2.9-0.6,4.7-0.6c1.2,0,2.2,0.1,3.2,0.2s1.8,0.3,2.6,0.4
		c0.8,0.2,1.4,0.4,2,0.6c0.6,0.2,1.1,0.4,1.6,0.7v6.9h-7.3v-1.4c0-0.8-0.2-1.4-0.5-1.8c-0.3-0.3-0.9-0.5-1.6-0.5s-1.3,0.2-1.6,0.5
		c-0.3,0.3-0.5,0.9-0.5,1.8v8.5c0,0.8,0.2,1.4,0.5,1.8c0.3,0.3,0.9,0.5,1.6,0.5s1.3-0.2,1.6-0.5c0.3-0.3,0.5-0.9,0.5-1.8v-0.2h-1.6
		V18.9z"/>
	<path class="st9" d="M277.1,22.4c0,1.6-0.2,2.9-0.7,4c-0.4,1.1-1.1,1.9-1.9,2.6s-1.8,1.2-2.9,1.5c-1.2,0.3-2.4,0.5-3.8,0.5
		c-1.5,0-2.8-0.2-3.9-0.5c-1.2-0.3-2.2-0.8-3-1.5c-0.8-0.7-1.5-1.6-1.9-2.6c-0.5-1.1-0.7-2.4-0.7-4v-9.7h-1.7V7.9h11v4.8h-1.2v11.2
		c0,0.7,0.1,1.1,0.4,1.4c0.3,0.3,0.7,0.4,1.3,0.4s1-0.1,1.3-0.4s0.4-0.8,0.4-1.4V12.6h-1.2V7.9h10.2v4.8h-1.7V22.4z"/>
	<path class="st9" d="M297.2,25.7h1.7l-0.5-2.3h-3.9l-0.5,2.3h1.7v4.8h-9.9v-4.8h1.2l4.9-17.8h10.6l4.9,17.8h1.2v4.8h-11.4V25.7z
		 M295.2,20.3h2.7l-1.2-5.8h-0.3L295.2,20.3z"/>
	<path class="st9" d="M328.6,18.9h10.3v4.3h-1.5V29c-0.4,0.2-1,0.4-1.6,0.7c-0.6,0.2-1.3,0.4-2,0.6c-0.8,0.2-1.6,0.3-2.6,0.4
		c-0.9,0.1-2,0.2-3.2,0.2c-1.7,0-3.3-0.2-4.7-0.6c-1.4-0.4-2.6-1.1-3.6-2c-1-0.9-1.7-2.1-2.2-3.6c-0.5-1.5-0.8-3.3-0.8-5.4
		c0-2.1,0.3-3.9,0.8-5.4c0.5-1.5,1.3-2.7,2.2-3.6s2.1-1.6,3.5-2c1.4-0.4,2.9-0.6,4.7-0.6c1.2,0,2.2,0.1,3.2,0.2s1.8,0.3,2.6,0.4
		c0.8,0.2,1.4,0.4,2,0.6s1.1,0.4,1.6,0.7v6.9h-7.3v-1.4c0-0.8-0.2-1.4-0.5-1.8c-0.3-0.3-0.9-0.5-1.6-0.5s-1.3,0.2-1.6,0.5
		c-0.3,0.3-0.5,0.9-0.5,1.8v8.5c0,0.8,0.2,1.4,0.5,1.8c0.3,0.3,0.9,0.5,1.6,0.5s1.3-0.2,1.6-0.5c0.3-0.3,0.5-0.9,0.5-1.8v-0.2h-1.6
		V18.9z"/>
	<path class="st9" d="M362.1,12.6h-3.5v4.6h2.6v3.3h-2.6v5.2h3.5v-4.6h6.5v9.3h-19.9v-4.8h1.7v-13h-1.7V7.9h19.9v8.8h-6.5V12.6z"/>
	<path class="st9" d="M387,25.3c0.6,0,1.1-0.1,1.4-0.3c0.3-0.2,0.4-0.5,0.4-0.9c0-0.3-0.1-0.5-0.3-0.7c-0.2-0.2-0.7-0.4-1.3-0.7
		c-1.4-0.5-2.7-1.1-3.8-1.6c-1.1-0.5-2-1-2.7-1.6c-0.7-0.6-1.2-1.3-1.6-2.1c-0.3-0.8-0.5-1.8-0.5-2.9c0-1.1,0.2-2.1,0.5-2.9
		c0.3-0.9,0.9-1.6,1.7-2.2c0.8-0.6,1.8-1.1,3-1.4c1.3-0.3,2.8-0.5,4.7-0.5c1.7,0,3.3,0.2,4.8,0.5c1.5,0.3,2.7,0.8,3.7,1.3v5.2h-6.1
		c0-0.6-0.2-0.9-0.5-1.1c-0.3-0.2-0.7-0.3-1.1-0.3c-0.6,0-1.1,0.1-1.4,0.2s-0.4,0.4-0.4,0.9c0,0.3,0.1,0.6,0.5,0.7
		c0.3,0.2,0.7,0.3,1.3,0.5c1.1,0.4,2.2,0.8,3.2,1.2c1,0.4,1.9,0.9,2.6,1.5c0.8,0.6,1.3,1.3,1.8,2.2s0.7,1.9,0.7,3.1
		c0,2.5-0.8,4.4-2.4,5.6s-4,1.8-7.1,1.8c-1.8,0-3.5-0.2-5.1-0.5c-1.6-0.3-3-0.7-3.9-1.1v-5.7h6.4c0,0.6,0.1,1,0.3,1.3
		S386.3,25.3,387,25.3z"/>
	<path class="st9" d="M165,46.5V36h2.6v10.5H165z"/>
	<path class="st9" d="M181.4,46.5l-7.6-7.3v7.3h-2.6V36h2.6l7.6,7.3V36h2.6v10.5H181.4z"/>
	<path class="st9" d="M196.7,46.5V36h2.6v8.2h9.3v2.3H196.7z"/>
	<path class="st9" d="M211.9,46.5V36h2.6v10.5H211.9z"/>
	<path class="st9" d="M231.4,43.7c-0.3,0.5-0.6,0.9-1,1.2c-0.4,0.4-0.9,0.7-1.4,1c-0.5,0.3-1.2,0.5-1.8,0.7
		c-0.7,0.2-1.4,0.2-2.2,0.2c-1.2,0-2.2-0.1-3.1-0.5c-0.9-0.3-1.7-0.7-2.3-1.2c-0.6-0.5-1.1-1.1-1.4-1.8s-0.5-1.4-0.5-2.2
		s0.2-1.5,0.5-2.2s0.8-1.3,1.4-1.8c0.6-0.5,1.4-0.9,2.3-1.2c0.9-0.3,1.9-0.5,3.1-0.5c0.8,0,1.5,0.1,2.2,0.2c0.7,0.1,1.3,0.4,1.8,0.6
		c0.5,0.3,1,0.6,1.4,0.9c0.4,0.4,0.8,0.7,1,1.2l-2.4,1.2c-0.2-0.3-0.4-0.5-0.6-0.7c-0.3-0.2-0.6-0.4-0.9-0.6
		c-0.4-0.2-0.8-0.3-1.2-0.4c-0.4-0.1-0.9-0.1-1.4-0.1c-0.7,0-1.4,0.1-1.9,0.3c-0.6,0.2-1,0.4-1.4,0.7s-0.6,0.6-0.8,1
		c-0.2,0.4-0.3,0.8-0.3,1.3c0,0.4,0.1,0.8,0.3,1.2c0.2,0.4,0.5,0.7,0.8,1s0.8,0.5,1.4,0.7s1.2,0.3,1.9,0.3c0.5,0,1-0.1,1.5-0.2
		c0.5-0.1,0.9-0.2,1.2-0.4c0.4-0.2,0.7-0.4,0.9-0.6c0.3-0.2,0.5-0.5,0.6-0.8L231.4,43.7z"/>
	<path class="st9" d="M244.6,46.5v-4.3H237v4.3h-2.6V36h2.6v3.9h7.6V36h2.6v10.5H244.6z"/>
	<path class="st9" d="M257.8,38.2v8.2h-2.6v-8.2h-4.7V36h12.1v2.3H257.8z"/>
	<path class="st9" d="M265.7,46.5V36h12.6v2.3h-10v1.9h8.8v2h-8.8v2h10.4v2.3H265.7z"/>
	<path class="st9" d="M292.1,46.5l-7.6-7.3v7.3h-2.6V36h2.6l7.6,7.3V36h2.6v10.5H292.1z"/>
	<path class="st9" d="M311.3,39.4c0,0.5-0.1,0.9-0.2,1.2c-0.1,0.4-0.3,0.7-0.5,0.9c-0.2,0.3-0.4,0.5-0.7,0.6s-0.5,0.3-0.7,0.4
		l1.8,3.9h-2.8l-1.7-3.6H301v3.6h-2.6V36h9.4c0.3,0,0.6,0,1,0.2c0.4,0.1,0.8,0.3,1.1,0.5c0.4,0.3,0.7,0.6,0.9,1
		C311.1,38.1,311.3,38.7,311.3,39.4z M308.6,39.4c0-0.3,0-0.5-0.1-0.6s-0.2-0.3-0.3-0.4s-0.3-0.1-0.4-0.2c-0.1,0-0.2,0-0.3,0H301
		v2.4h6.4c0.1,0,0.2,0,0.3-0.1c0.1,0,0.3-0.1,0.4-0.2c0.1-0.1,0.3-0.2,0.4-0.4C308.6,39.8,308.6,39.6,308.6,39.4z"/>
	<path class="st9" d="M326.2,46.5l-1.2-2.1h-7.4l-1.2,2.1h-2.8l6-10.5h3.4l6,10.5H326.2z M321.3,37.9l-2.4,4.2h4.8L321.3,37.9z"/>
	<path class="st9" d="M345.5,41.2c0,0.7-0.1,1.4-0.4,2s-0.7,1.2-1.3,1.7c-0.6,0.5-1.3,0.8-2.1,1.1c-0.8,0.3-1.8,0.4-2.8,0.4h-7.3V36
		h7.3c1.1,0,2,0.1,2.8,0.4c0.8,0.3,1.5,0.7,2.1,1.1c0.6,0.5,1,1,1.3,1.7S345.5,40.5,345.5,41.2z M342.8,41.2c0-0.4-0.1-0.8-0.2-1.2
		s-0.4-0.7-0.7-1c-0.3-0.3-0.7-0.5-1.2-0.7c-0.5-0.2-1.1-0.2-1.7-0.2h-4.6v6.1h4.6c0.7,0,1.3-0.1,1.7-0.2s0.9-0.4,1.2-0.7
		c0.3-0.3,0.6-0.6,0.7-1S342.8,41.6,342.8,41.2z"/>
	<path class="st9" d="M348.5,46.5V36h12.6v2.3h-10v1.9h8.8v2h-8.8v2h10.4v2.3H348.5z"/>
</g>
</svg>
